<?xml version="1.0" encoding="utf-8"?>
<!-- Generator: Adobe Illustrator 27.1.0, SVG Export Plug-In . SVG Version: 6.00 Build 0)  -->
<svg version="1.1" id="Layer_1" xmlns="http://www.w3.org/2000/svg" xmlns:xlink="http://www.w3.org/1999/xlink" x="0px" y="0px"
	 viewBox="0 0 595.3 678.4" style="enable-background:new 0 0 595.3 678.4;" xml:space="preserve">
<style type="text/css">
	.st0{fill:#D3D3D3;}
	.st1{font-family:'RobotoMono-MediumItalic';}
	.st2{font-size:108.8939px;}
</style>
<path class="st0" d="M0.7,455c0.9-2.6,1.6-4.8,2.6-7c4.6-9.9,12.7-14.6,23.3-14.8c60.8-1.3,118.5-15.1,172.8-42.5
	c34.6-17.4,63.2-41.8,84.1-74.8c1.5-2.4,3.3-4.7,4.9-7.1c0.9-1.4,1.8-1.8,3.4-0.9c13.9,7.9,27.8,15.7,41.7,23.5
	c1.7,1,1.8,1.9,0.8,3.5c-25.2,42.2-59.2,75.1-102.5,98.6c-42.1,22.8-86.9,37.4-133.8,45.8c-3.5,0.6-7,1.3-10.5,1.9
	c-1.1,0.2-2.3,0.3-3,1.8c4.2,4.7,9,9,13.8,13.1c13.7,11.6,27.9,22.4,42.3,33.1c3.2,2.4,6.9,3.2,10.8,2.3
	c23.7-5.4,45.6-14.6,64.5-30.3c1.6-1.3,2.9-3.2,5.4-4.1c0.3,2.5-0.8,4.2-1.7,6c-5.9,11.9-14.2,22.3-22.4,32.6
	c-4.5,5.7-9.3,11.1-13.9,16.6c-0.6,0.8-1.5,1.4-1.7,2.5c0.5,1.4,1.9,1.6,2.9,2.1c13.8,6.7,27.7,13.3,41.1,20.9
	c12.8,7.2,26.4,7,39.9,2.3c19.1-6.5,36.2-16.6,52.7-28.1c15.7-10.9,30.3-23.1,44.6-35.8c0.9-0.8,1.7-1.9,3.3-2.1
	c0.4,1.7-0.4,3.1-0.9,4.5c-6,15.6-14.7,29.8-23.4,44c-8.6,14.1-17.7,27.9-27.1,41.5c-0.6,0.9-1.5,1.8-1.6,3.3
	c3.7,1.7,7.8,2.3,11.7,3.2c19.2,4.4,38.8,6.7,58.1,10.3c3.7,0.7,6.4-1.2,8.4-4.2c7.8-11.2,15-22.8,22-34.6
	c20.8-35.1,38.6-71.8,54-109.5c8.3-20.2,15.4-40.8,22.9-61.2c0.2-0.4,0.3-0.9,0.5-1.3c1.8-4.9,1.8-4.9,6.7-3.3
	c13.7,4.7,27.3,9.4,41,14.1c1.2,0.4,2.5,0.6,3.6,2c-1.2,3.7-2.5,7.6-3.8,11.5c-20,58.2-44.4,114.4-75.3,167.7
	c-11.9,20.5-24.7,40.3-38.6,59.5c-2.9,4-6.6,7-10.3,10.3c-16.4,0.2-32.7,0.2-49.6,0.1c-1.5-0.4-2.5-0.8-3.5-0.9
	c-17.6-2.3-35-5.9-52.2-10.1c-46.2-11.3-90.5-27.6-132.9-49.1c-59.2-30.1-111.3-69.4-155.2-119.3c-7.8-8.9-16.9-17-19.9-29.3
	C0.7,460.9,0.7,458.1,0.7,455z"/>
<path class="st0" d="M596,29.3c-15.4,42.9-30.7,85.5-46.1,128.1c-8.6,23.9-17.3,47.9-26,71.8c-2.3,6.3-2.3,6.4-8.2,3.8
	c-23.5-10.4-47-20.8-70.5-31.3c-4.1-1.8-4.3-2.3-2.1-6.4c15.9-29.9,31.8-59.8,47.7-89.7c16.8-31.5,33.7-62.9,50.5-94.4
	c2.8-5.2,6.5-9.1,12.4-11.1c3.7-0.1,7.1-0.1,11.1,0c2,0.5,3.4,0.7,4.9,1.1c12,3.5,21.8,9.6,26.2,22.2C596,25.3,596,27.1,596,29.3z"
	/>
<path class="st0" d="M545.1,374c-43.6-19.4-87-38.7-130.4-58c-33.8-15-67.5-30-101.3-45c-4-1.8-4.1-1.8-2.1-5.7
	c12-24.2,32-37.8,57.8-43.5c18-4,35-0.2,51.6,7.1c31.2,13.8,62.4,27.5,93.4,41.6c25.9,11.8,43.3,30.9,49.4,59.2
	c3.5,16.1,1.6,31.9-4.4,47.2c-0.9,2.3-2.1,2.6-4.2,1.6C551.6,376.9,548.5,375.6,545.1,374z"/>
<text transform="matrix(1 0 0 1 8.853 91.4968)"><tspan x="0" y="0" class="st0 st1 st2">AUTO</tspan><tspan x="0" y="130.7" class="st0 st1 st2">CACHE</tspan></text>
</svg>
